<svg id="Layer_1" data-name="Layer 1" xmlns="http://www.w3.org/2000/svg" viewBox="0 0 300 300"><defs><style>.cls-1{fill:#f3fcff;}.cls-2{fill:#1b96db;}</style></defs><rect class="cls-1" x="0.41" y="0.31" width="300" height="300"/><path class="cls-2" d="M30.59,99.14H56.45v76.29H97.83v25.43H30.59Z"/><path class="cls-2" d="M146.09,99.14c20.4,0,39.51,10.35,39.51,34.05v34.19c0,23.42-19.11,33.62-39.51,33.48H108V99.14Zm.87,77.58c8.76,0,12.78-4.45,12.78-11.06V133.91c0-6.61-4.16-10.77-12.78-10.77H133.88v53.58Z"/><path class="cls-2" d="M210.74,168.68c10.2,12.35,32.61,12.93,33.33,2,.29-5.75-9-9.05-17.38-10.2-16.38-2.59-31.32-12.93-31.32-32.33,0-20,18.1-30.45,36.78-30.45,12.35,0,24.28,3.45,34.76,16.23L250.1,126.87c-10.63-11.35-28.87-10.92-29.3.86.28,4.89,5.6,7.76,13.5,9.48,18.1,3.31,36.2,9.63,35.05,34.63-.86,19.68-21.54,30.45-40.22,30.45-12.21,0-25.14-6.17-34.62-18.39Z"/></svg>